<svg version="1.1" viewBox="0.0 0.0 503.54068241469815 536.5616797900262" fill="none" stroke="none" stroke-linecap="square" stroke-miterlimit="10" xmlns:xlink="http://www.w3.org/1999/xlink" xmlns="http://www.w3.org/2000/svg"><clipPath id="p.0"><path d="m0 0l503.54068 0l0 536.5617l-503.54068 0l0 -536.5617z" clip-rule="nonzero"/></clipPath><g clip-path="url(#p.0)"><path fill="#000000" fill-opacity="0.0" d="m0 0l503.54068 0l0 536.5617l-503.54068 0z" fill-rule="evenodd"/><path fill="#000000" fill-opacity="0.0" d="m19.27053 19.273155l276.09448 262.04724" fill-rule="evenodd"/><path stroke="#000000" stroke-width="1.0" stroke-linejoin="round" stroke-linecap="butt" d="m19.27053 19.273155l276.09448 262.04724" fill-rule="evenodd"/><path fill="#d9d9d9" d="m279.73883 319.03543l0 0c0 -29.466766 23.887573 -53.35434 53.35434 -53.35434l0 0c14.150452 0 27.721344 5.6212463 37.727203 15.627136c10.00589 10.005859 15.627136 23.576752 15.627136 37.727203l0 0c0 29.466797 -23.887543 53.35434 -53.35434 53.35434l0 0c-29.466766 0 -53.35434 -23.887543 -53.35434 -53.35434z" fill-rule="evenodd"/><path stroke="#000000" stroke-width="1.0" stroke-linejoin="round" stroke-linecap="butt" d="m279.73883 319.03543l0 0c0 -29.466766 23.887573 -53.35434 53.35434 -53.35434l0 0c14.150452 0 27.721344 5.6212463 37.727203 15.627136c10.00589 10.005859 15.627136 23.576752 15.627136 37.727203l0 0c0 29.466797 -23.887543 53.35434 -53.35434 53.35434l0 0c-29.466766 0 -53.35434 -23.887543 -53.35434 -53.35434z" fill-rule="evenodd"/><path fill="#000000" d="m323.2748 328.91544l0 -14.515625l2.203125 0l0 2.03125q0.6875 -1.0625 1.8125 -1.703125q1.140625 -0.65625 2.59375 -0.65625q1.609375 0 2.640625 0.671875q1.03125 0.65625 1.453125 1.859375q1.734375 -2.53125 4.484375 -2.53125q2.171875 0 3.328125 1.203125q1.15625 1.1875 1.15625 3.671875l0 9.96875l-2.4375 0l0 -9.140625q0 -1.484375 -0.25 -2.125q-0.234375 -0.65625 -0.859375 -1.046875q-0.625 -0.40625 -1.484375 -0.40625q-1.53125 0 -2.546875 1.03125q-1.0 1.015625 -1.0 3.25l0 8.4375l-2.46875 0l0 -9.4375q0 -1.640625 -0.609375 -2.453125q-0.59375 -0.828125 -1.953125 -0.828125q-1.046875 0 -1.9375 0.546875q-0.875 0.546875 -1.265625 1.609375q-0.390625 1.046875 -0.390625 3.03125l0 7.53125l-2.46875 0z" fill-rule="nonzero"/><path fill="#000000" d="m12.227035 16.355642l0 0c0 -2.278717 1.8472652 -4.125983 4.125983 -4.125983l0 0c1.0942802 0 2.1437397 0.4347 2.917513 1.2084723c0.7737713 0.77377224 1.2084713 1.8232327 1.2084713 2.917511l0 0c0 2.278719 -1.8472652 4.125984 -4.125984 4.125984l0 0c-2.278718 0 -4.125983 -1.8472652 -4.125983 -4.125984z" fill-rule="evenodd"/><path stroke="#000000" stroke-width="1.0" stroke-linejoin="round" stroke-linecap="butt" d="m12.227035 16.355642l0 0c0 -2.278717 1.8472652 -4.125983 4.125983 -4.125983l0 0c1.0942802 0 2.1437397 0.4347 2.917513 1.2084723c0.7737713 0.77377224 1.2084713 1.8232327 1.2084713 2.917511l0 0c0 2.278719 -1.8472652 4.125984 -4.125984 4.125984l0 0c-2.278718 0 -4.125983 -1.8472652 -4.125983 -4.125984z" fill-rule="evenodd"/><path fill="#000000" fill-opacity="0.0" d="m16.353018 20.481627l0 135.74803" fill-rule="evenodd"/><path stroke="#cccccc" stroke-width="1.0" stroke-linejoin="round" stroke-linecap="butt" stroke-dasharray="4.0,3.0" d="m16.353018 20.481627l0 135.74803" fill-rule="evenodd"/><path fill="#000000" fill-opacity="0.0" d="m12.227035 28.736221l27.527557 0l0 28.440945l-27.527557 0z" fill-rule="evenodd"/><path fill="#000000" d="m22.070784 43.004818q0 -6.90625 4.34375 -6.90625q4.359375 0 4.359375 6.90625q0 6.890625 -4.359375 6.890625q-4.34375 0 -4.34375 -6.890625zm1.6875 -0.671875l5.328125 0q-0.09375 -2.84375 -0.828125 -3.859375q-0.734375 -1.03125 -1.859375 -1.03125q-2.546875 0 -2.640625 4.890625zm5.328125 1.328125l-5.328125 0q0.09375 4.890625 2.65625 4.890625q2.578125 0 2.671875 -4.890625z" fill-rule="nonzero"/><path fill="#000000" fill-opacity="0.0" d="m295.3686 354.6209l-59.65355 68.81891" fill-rule="evenodd"/><path stroke="#4a86e8" stroke-width="1.0" stroke-linejoin="round" stroke-linecap="butt" stroke-dasharray="4.0,3.0" d="m295.3686 354.6209l-55.72357 64.285095" fill-rule="evenodd"/><path fill="#4a86e8" stroke="#4a86e8" stroke-width="1.0" stroke-linecap="butt" d="m238.39691 417.82413l-1.7243347 4.511017l4.2205353 -2.3472595z" fill-rule="evenodd"/><path fill="#000000" fill-opacity="0.0" d="m333.09317 372.38977l0 149.48029" fill-rule="evenodd"/><path stroke="#0000ff" stroke-width="2.0" stroke-linejoin="round" stroke-linecap="butt" d="m333.09317 372.38977l0 137.48032" fill-rule="evenodd"/><path fill="#0000ff" stroke="#0000ff" stroke-width="2.0" stroke-linecap="butt" d="m329.7897 509.8701l3.3034668 9.076202l3.3034668 -9.076202z" fill-rule="evenodd"/><path fill="#000000" fill-opacity="0.0" d="m370.82037 356.76263l64.53543 64.53543" fill-rule="evenodd"/><path stroke="#ff00ff" stroke-width="1.0" stroke-linejoin="round" stroke-linecap="butt" stroke-dasharray="4.0,3.0" d="m370.82037 356.76263l60.292786 60.292786" fill-rule="evenodd"/><path fill="#ff00ff" stroke="#ff00ff" stroke-width="1.0" stroke-linecap="butt" d="m429.94522 418.2234l4.3768616 2.0409546l-2.0409546 -4.3768616z" fill-rule="evenodd"/><path fill="#000000" fill-opacity="0.0" d="m235.71129 425.58267l96.31496 96.31497" fill-rule="evenodd"/><path stroke="#b7b7b7" stroke-width="1.0" stroke-linejoin="round" stroke-linecap="butt" stroke-dasharray="1.0,3.0" d="m235.71129 425.58267l92.07231 92.072296" fill-rule="evenodd"/><path fill="#b7b7b7" stroke="#b7b7b7" stroke-width="1.0" stroke-linecap="butt" d="m326.61566 518.82294l4.3768616 2.0409546l-2.0409546 -4.376831z" fill-rule="evenodd"/><path fill="#000000" fill-opacity="0.0" d="m435.0971 420.41995l-101.22833 101.22836" fill-rule="evenodd"/><path stroke="#b7b7b7" stroke-width="1.0" stroke-linejoin="round" stroke-linecap="butt" stroke-dasharray="1.0,3.0" d="m435.0971 420.41995l-96.98569 96.98569" fill-rule="evenodd"/><path fill="#b7b7b7" stroke="#b7b7b7" stroke-width="1.0" stroke-linecap="butt" d="m336.94345 516.23773l-2.0409546 4.376831l4.3768616 -2.0409546z" fill-rule="evenodd"/><path fill="#000000" fill-opacity="0.0" d="m295.3386 258.6483l-88.063 -88.06299" fill-rule="evenodd"/><path stroke="#9900ff" stroke-width="2.0" stroke-linejoin="round" stroke-linecap="butt" d="m295.3386 258.6483l-79.57773 -79.57771" fill-rule="evenodd"/><path fill="#9900ff" stroke="#9900ff" stroke-width="2.0" stroke-linecap="butt" d="m218.09677 176.73468l-8.753738 -4.0819397l4.0819397 8.753738z" fill-rule="evenodd"/><path fill="#000000" fill-opacity="0.0" d="m334.16272 414.57217l47.40158 0l0 28.440948l-47.40158 0z" fill-rule="evenodd"/><path fill="#0000ff" d="m344.3971 435.51266l0 -9.671875l1.46875 0l0 1.359375q0.453125 -0.71875 1.203125 -1.140625q0.765625 -0.4375 1.71875 -0.4375q1.078125 0 1.765625 0.453125q0.6875 0.4375 0.96875 1.234375q1.15625 -1.6875 2.984375 -1.6875q1.453125 0 2.21875 0.796875q0.78125 0.796875 0.78125 2.453125l0 6.640625l-1.640625 0l0 -6.09375q0 -0.984375 -0.15625 -1.40625q-0.15625 -0.4375 -0.578125 -0.703125q-0.421875 -0.265625 -0.984375 -0.265625q-1.015625 0 -1.6875 0.6875q-0.671875 0.671875 -0.671875 2.15625l0 5.625l-1.640625 0l0 -6.28125q0 -1.09375 -0.40625 -1.640625q-0.40625 -0.546875 -1.3125 -0.546875q-0.6875 0 -1.28125 0.359375q-0.59375 0.359375 -0.859375 1.0625q-0.25 0.703125 -0.25 2.03125l0 5.015625l-1.640625 0zm15.228302 0.796875l1.59375 0.234375q0.109375 0.75 0.5625 1.078125q0.609375 0.453125 1.671875 0.453125q1.140625 0 1.75 -0.453125q0.625 -0.453125 0.84375 -1.265625q0.125 -0.5 0.109375 -2.109375q-1.0625 1.265625 -2.671875 1.265625q-2.0 0 -3.09375 -1.4375q-1.09375 -1.4375 -1.09375 -3.453125q0 -1.390625 0.5 -2.5625q0.515625 -1.171875 1.453125 -1.796875q0.953125 -0.640625 2.25 -0.640625q1.703125 0 2.8125 1.375l0 -1.15625l1.515625 0l0 8.359375q0 2.265625 -0.46875 3.203125q-0.453125 0.9375 -1.453125 1.484375q-0.984375 0.546875 -2.453125 0.546875q-1.71875 0 -2.796875 -0.78125q-1.0625 -0.765625 -1.03125 -2.34375zm1.359375 -5.8125q0 1.90625 0.75 2.78125q0.765625 0.875 1.90625 0.875q1.125 0 1.890625 -0.859375q0.765625 -0.875 0.765625 -2.734375q0 -1.78125 -0.796875 -2.671875q-0.78125 -0.90625 -1.890625 -0.90625q-1.09375 0 -1.859375 0.890625q-0.765625 0.875 -0.765625 2.625z" fill-rule="nonzero"/><path fill="#000000" fill-opacity="0.0" d="m174.05774 356.7638l96.31497 0l0 28.440918l-96.31497 0z" fill-rule="evenodd"/><path fill="#4a86e8" d="m188.19585 377.70425l0 -9.671875l1.46875 0l0 1.359375q0.453125 -0.71875 1.203125 -1.140625q0.765625 -0.4375 1.71875 -0.4375q1.078125 0 1.765625 0.453125q0.6875 0.4375 0.96875 1.234375q1.15625 -1.6875 2.984375 -1.6875q1.453125 0 2.21875 0.796875q0.78125 0.796875 0.78125 2.453125l0 6.640625l-1.640625 0l0 -6.09375q0 -0.984375 -0.15625 -1.40625q-0.15625 -0.4375 -0.578125 -0.703125q-0.421875 -0.265625 -0.984375 -0.265625q-1.015625 0 -1.6875 0.6875q-0.671875 0.671875 -0.671875 2.15625l0 5.625l-1.640625 0l0 -6.28125q0 -1.09375 -0.40625 -1.640625q-0.40625 -0.546875 -1.3125 -0.546875q-0.6875 0 -1.28125 0.359375q-0.59375 0.359375 -0.859375 1.0625q-0.25 0.703125 -0.25 2.03125l0 5.015625l-1.640625 0zm15.228302 0.796875l1.59375 0.234375q0.109375 0.75 0.5625 1.078125q0.609375 0.453125 1.671875 0.453125q1.140625 0 1.75 -0.453125q0.625 -0.453125 0.84375 -1.265625q0.125 -0.5 0.109375 -2.109375q-1.0625 1.265625 -2.671875 1.265625q-2.0 0 -3.09375 -1.4375q-1.09375 -1.4375 -1.09375 -3.453125q0 -1.390625 0.5 -2.5625q0.515625 -1.171875 1.453125 -1.796875q0.953125 -0.640625 2.25 -0.640625q1.703125 0 2.8125 1.375l0 -1.15625l1.515625 0l0 8.359375q0 2.265625 -0.46875 3.203125q-0.453125 0.9375 -1.453125 1.484375q-0.984375 0.546875 -2.453125 0.546875q-1.71875 0 -2.796875 -0.78125q-1.0625 -0.765625 -1.03125 -2.34375zm1.359375 -5.8125q0 1.90625 0.75 2.78125q0.765625 0.875 1.90625 0.875q1.125 0 1.890625 -0.859375q0.765625 -0.875 0.765625 -2.734375q0 -1.78125 -0.796875 -2.671875q-0.78125 -0.90625 -1.890625 -0.90625q-1.09375 0 -1.859375 0.890625q-0.765625 0.875 -0.765625 2.625zm13.855896 2.125l1.625 -0.25q0.125 0.96875 0.75 1.5q0.625 0.515625 1.75 0.515625q1.125 0 1.671875 -0.453125q0.546875 -0.46875 0.546875 -1.09375q0 -0.546875 -0.484375 -0.875q-0.328125 -0.21875 -1.671875 -0.546875q-1.8125 -0.46875 -2.515625 -0.796875q-0.6875 -0.328125 -1.046875 -0.90625q-0.359375 -0.59375 -0.359375 -1.3125q0 -0.640625 0.296875 -1.1875q0.296875 -0.5625 0.8125 -0.921875q0.375 -0.28125 1.03125 -0.46875q0.671875 -0.203125 1.421875 -0.203125q1.140625 0 2.0 0.328125q0.859375 0.328125 1.265625 0.890625q0.421875 0.5625 0.578125 1.5l-1.609375 0.21875q-0.109375 -0.75 -0.640625 -1.171875q-0.515625 -0.421875 -1.46875 -0.421875q-1.140625 0 -1.625 0.375q-0.46875 0.375 -0.46875 0.875q0 0.3125 0.1875 0.578125q0.203125 0.265625 0.640625 0.4375q0.234375 0.09375 1.4375 0.421875q1.75 0.453125 2.4375 0.75q0.6875 0.296875 1.078125 0.859375q0.390625 0.5625 0.390625 1.40625q0 0.828125 -0.484375 1.546875q-0.46875 0.71875 -1.375 1.125q-0.90625 0.390625 -2.046875 0.390625q-1.875 0 -2.875 -0.78125q-0.984375 -0.78125 -1.25 -2.328125zm9.984375 -8.578125l0 -1.890625l1.640625 0l0 1.890625l-1.640625 0zm0 11.46875l0 -9.671875l1.640625 0l0 9.671875l-1.640625 0zm4.144821 0l0 -9.671875l1.46875 0l0 1.375q1.0625 -1.59375 3.078125 -1.59375q0.875 0 1.609375 0.3125q0.734375 0.3125 1.09375 0.828125q0.375 0.5 0.515625 1.203125q0.09375 0.453125 0.09375 1.59375l0 5.953125l-1.640625 0l0 -5.890625q0 -1.0 -0.203125 -1.484375q-0.1875 -0.5 -0.671875 -0.796875q-0.484375 -0.296875 -1.140625 -0.296875q-1.046875 0 -1.8125 0.671875q-0.75 0.65625 -0.75 2.515625l0 5.28125l-1.640625 0zm15.168396 -6.671875q0 -6.90625 4.34375 -6.90625q4.359375 0 4.359375 6.90625q0 6.890625 -4.359375 6.890625q-4.34375 0 -4.34375 -6.890625zm1.6875 -0.671875l5.328125 0q-0.09375 -2.84375 -0.828125 -3.859375q-0.734375 -1.03125 -1.859375 -1.03125q-2.546875 0 -2.640625 4.890625zm5.328125 1.328125l-5.328125 0q0.09375 4.890625 2.65625 4.890625q2.578125 0 2.671875 -4.890625z" fill-rule="nonzero"/><path fill="#000000" fill-opacity="0.0" d="m395.81628 356.7638l96.31494 0l0 28.440918l-96.31494 0z" fill-rule="evenodd"/><path fill="#ff00ff" d="m407.36273 377.70425l0 -9.671875l1.46875 0l0 1.359375q0.453125 -0.71875 1.203125 -1.140625q0.765625 -0.4375 1.71875 -0.4375q1.078125 0 1.765625 0.453125q0.6875 0.4375 0.96875 1.234375q1.15625 -1.6875 2.984375 -1.6875q1.453125 0 2.21875 0.796875q0.78125 0.796875 0.78125 2.453125l0 6.640625l-1.640625 0l0 -6.09375q0 -0.984375 -0.15625 -1.40625q-0.15625 -0.4375 -0.578125 -0.703125q-0.421875 -0.265625 -0.984375 -0.265625q-1.015625 0 -1.6875 0.6875q-0.671875 0.671875 -0.671875 2.15625l0 5.625l-1.640625 0l0 -6.28125q0 -1.09375 -0.40625 -1.640625q-0.40625 -0.546875 -1.3125 -0.546875q-0.6875 0 -1.28125 0.359375q-0.59375 0.359375 -0.859375 1.0625q-0.25 0.703125 -0.25 2.03125l0 5.015625l-1.640625 0zm15.228302 0.796875l1.59375 0.234375q0.109375 0.75 0.5625 1.078125q0.609375 0.453125 1.671875 0.453125q1.140625 0 1.75 -0.453125q0.625 -0.453125 0.84375 -1.265625q0.125 -0.5 0.109375 -2.109375q-1.0625 1.265625 -2.671875 1.265625q-2.0 0 -3.09375 -1.4375q-1.09375 -1.4375 -1.09375 -3.453125q0 -1.390625 0.5 -2.5625q0.515625 -1.171875 1.453125 -1.796875q0.953125 -0.640625 2.25 -0.640625q1.703125 0 2.8125 1.375l0 -1.15625l1.515625 0l0 8.359375q0 2.265625 -0.46875 3.203125q-0.453125 0.9375 -1.453125 1.484375q-0.984375 0.546875 -2.453125 0.546875q-1.71875 0 -2.796875 -0.78125q-1.0625 -0.765625 -1.03125 -2.34375zm1.359375 -5.8125q0 1.90625 0.75 2.78125q0.765625 0.875 1.90625 0.875q1.125 0 1.890625 -0.859375q0.765625 -0.875 0.765625 -2.734375q0 -1.78125 -0.796875 -2.671875q-0.78125 -0.90625 -1.890625 -0.90625q-1.09375 0 -1.859375 0.890625q-0.765625 0.875 -0.765625 2.625zm20.824646 1.46875l1.609375 0.21875q-0.265625 1.65625 -1.359375 2.609375q-1.078125 0.9375 -2.671875 0.9375q-1.984375 0 -3.1875 -1.296875q-1.203125 -1.296875 -1.203125 -3.71875q0 -1.578125 0.515625 -2.75q0.515625 -1.171875 1.578125 -1.75q1.0625 -0.59375 2.3125 -0.59375q1.578125 0 2.578125 0.796875q1.0 0.796875 1.28125 2.265625l-1.59375 0.234375q-0.234375 -0.96875 -0.8125 -1.453125q-0.578125 -0.5 -1.390625 -0.5q-1.234375 0 -2.015625 0.890625q-0.78125 0.890625 -0.78125 2.8125q0 1.953125 0.75 2.84375q0.75 0.875 1.953125 0.875q0.96875 0 1.609375 -0.59375q0.65625 -0.59375 0.828125 -1.828125zm2.40625 -1.296875q0 -2.6875 1.484375 -3.96875q1.25 -1.078125 3.046875 -1.078125q2.0 0 3.265625 1.3125q1.265625 1.296875 1.265625 3.609375q0 1.859375 -0.5625 2.9375q-0.5625 1.0625 -1.640625 1.65625q-1.0625 0.59375 -2.328125 0.59375q-2.03125 0 -3.28125 -1.296875q-1.25 -1.3125 -1.25 -3.765625zm1.6875 0q0 1.859375 0.796875 2.796875q0.8125 0.921875 2.046875 0.921875q1.21875 0 2.03125 -0.921875q0.8125 -0.9375 0.8125 -2.84375q0 -1.796875 -0.8125 -2.71875q-0.8125 -0.921875 -2.03125 -0.921875q-1.234375 0 -2.046875 0.921875q-0.796875 0.90625 -0.796875 2.765625zm8.641327 1.953125l1.625 -0.25q0.125 0.96875 0.75 1.5q0.625 0.515625 1.75 0.515625q1.125 0 1.671875 -0.453125q0.546875 -0.46875 0.546875 -1.09375q0 -0.546875 -0.484375 -0.875q-0.328125 -0.21875 -1.671875 -0.546875q-1.8125 -0.46875 -2.515625 -0.796875q-0.6875 -0.328125 -1.046875 -0.90625q-0.359375 -0.59375 -0.359375 -1.3125q0 -0.640625 0.296875 -1.1875q0.296875 -0.5625 0.8125 -0.921875q0.375 -0.28125 1.03125 -0.46875q0.671875 -0.203125 1.421875 -0.203125q1.140625 0 2.0 0.328125q0.859375 0.328125 1.265625 0.890625q0.421875 0.5625 0.578125 1.5l-1.609375 0.21875q-0.109375 -0.75 -0.640625 -1.171875q-0.515625 -0.421875 -1.46875 -0.421875q-1.140625 0 -1.625 0.375q-0.46875 0.375 -0.46875 0.875q0 0.3125 0.1875 0.578125q0.203125 0.265625 0.640625 0.4375q0.234375 0.09375 1.4375 0.421875q1.75 0.453125 2.4375 0.75q0.6875 0.296875 1.078125 0.859375q0.390625 0.5625 0.390625 1.40625q0 0.828125 -0.484375 1.546875q-0.46875 0.71875 -1.375 1.125q-0.90625 0.390625 -2.046875 0.390625q-1.875 0 -2.875 -0.78125q-0.984375 -0.78125 -1.25 -2.328125zm14.777069 -3.78125q0 -6.90625 4.34375 -6.90625q4.359375 0 4.359375 6.90625q0 6.890625 -4.359375 6.890625q-4.34375 0 -4.34375 -6.890625zm1.6875 -0.671875l5.328125 0q-0.09375 -2.84375 -0.828125 -3.859375q-0.734375 -1.03125 -1.859375 -1.03125q-2.546875 0 -2.640625 4.890625zm5.328125 1.328125l-5.328125 0q0.09375 4.890625 2.65625 4.890625q2.578125 0 2.671875 -4.890625z" fill-rule="nonzero"/><path fill="#000000" fill-opacity="0.0" d="m251.7769 194.71654l27.527573 0l0 28.440948l-27.527573 0z" fill-rule="evenodd"/><path fill="#9900ff" d="m265.62067 215.65701l0 -11.78125l-4.40625 0l0 -1.578125l10.578125 0l0 1.578125l-4.40625 0l0 11.78125l-1.765625 0z" fill-rule="nonzero"/><path fill="#000000" fill-opacity="0.0" d="m370.82037 281.30823l67.33859 -67.33859" fill-rule="evenodd"/><path stroke="#ff9900" stroke-width="2.0" stroke-linejoin="round" stroke-linecap="butt" d="m370.82037 281.30823l58.853302 -58.853317" fill-rule="evenodd"/><path fill="#ff9900" stroke="#ff9900" stroke-width="2.0" stroke-linecap="butt" d="m432.00958 224.79082l4.0819397 -8.753738l-8.753754 4.0819244z" fill-rule="evenodd"/><path fill="#000000" fill-opacity="0.0" d="m364.65616 213.9685l39.653564 0l0 32.818893l-39.653564 0z" fill-rule="evenodd"/><path fill="#ff9900" d="m377.3654 237.09795l-1.515625 0l0 -13.359375l1.640625 0l0 4.765625q1.046875 -1.296875 2.65625 -1.296875q0.890625 0 1.6875 0.359375q0.796875 0.359375 1.3125 1.015625q0.515625 0.640625 0.796875 1.5625q0.296875 0.921875 0.296875 1.96875q0 2.484375 -1.234375 3.84375q-1.21875 1.359375 -2.953125 1.359375q-1.703125 0 -2.6875 -1.4375l0 1.21875zm-0.015625 -4.90625q0 1.734375 0.484375 2.515625q0.765625 1.265625 2.09375 1.265625q1.078125 0 1.859375 -0.9375q0.78125 -0.9375 0.78125 -2.78125q0 -1.890625 -0.75 -2.796875q-0.75 -0.90625 -1.828125 -0.90625q-1.0625 0 -1.859375 0.9375q-0.78125 0.9375 -0.78125 2.703125zm11.578857 4.90625l-3.6875 -9.671875l1.734375 0l2.078125 5.796875q0.328125 0.9375 0.625 1.9375q0.203125 -0.765625 0.609375 -1.828125l2.140625 -5.90625l1.6875 0l-3.65625 9.671875l-1.53125 0z" fill-rule="nonzero"/></g></svg>