<svg version="1.1" viewBox="0.0 0.0 527.3884514435696 359.54068241469815" fill="none" stroke="none" stroke-linecap="square" stroke-miterlimit="10" xmlns:xlink="http://www.w3.org/1999/xlink" xmlns="http://www.w3.org/2000/svg"><clipPath id="p.0"><path d="m0 0l527.3884 0l0 359.54068l-527.3884 0l0 -359.54068z" clip-rule="nonzero"/></clipPath><g clip-path="url(#p.0)"><path fill="#000000" fill-opacity="0.0" d="m0 0l527.3884 0l0 359.54068l-527.3884 0z" fill-rule="evenodd"/><path fill="#cfe2f3" d="m406.97113 48.889763l0 0c0 -19.073393 15.462036 -34.53543 34.53543 -34.53543l0 0c9.159363 0 17.943604 3.6385431 24.420227 10.115193c6.476654 6.47665 10.115204 15.260872 10.115204 24.420238l0 0c0 19.073395 -15.462036 34.53543 -34.53543 34.53543l0 0c-19.073395 0 -34.53543 -15.462036 -34.53543 -34.53543z" fill-rule="evenodd"/><path stroke="#000000" stroke-width="1.0" stroke-linejoin="round" stroke-linecap="butt" d="m406.97113 48.889763l0 0c0 -19.073393 15.462036 -34.53543 34.53543 -34.53543l0 0c9.159363 0 17.943604 3.6385431 24.420227 10.115193c6.476654 6.47665 10.115204 15.260872 10.115204 24.420238l0 0c0 19.073395 -15.462036 34.53543 -34.53543 34.53543l0 0c-19.073395 0 -34.53543 -15.462036 -34.53543 -34.53543z" fill-rule="evenodd"/><path fill="#000000" d="m442.8712 53.89039q0 0.25 0.203125 0.25q0.21875 0 0.453125 -0.234375q0.25 -0.234375 0.921875 -1.03125l0.234375 0.1875q-0.625 0.875 -1.1875 1.359375q-0.546875 0.46875 -1.203125 0.46875q-0.640625 0 -0.640625 -0.734375q0 -0.203125 0.21875 -1.046875l0.921875 -3.6875q0.109375 -0.40625 0.109375 -0.5625q0 -0.125 -0.09375 -0.21875q-0.09375 -0.109375 -0.21875 -0.109375q-0.359375 0 -0.90625 0.484375q-0.546875 0.484375 -1.140625 1.296875q-0.609375 0.859375 -0.953125 1.71875q-0.34375 0.84375 -0.828125 2.71875l-1.203125 0q1.515625 -5.640625 1.515625 -5.828125q0 -0.390625 -0.3125 -0.390625q-0.421875 0 -1.078125 0.625q-0.65625 0.609375 -1.328125 1.625q-0.40625 0.625 -0.6875 1.359375q-0.28125 0.71875 -0.859375 2.609375l-1.203125 0q0.1875 -0.6875 0.625 -2.28125q0.953125 -3.328125 0.953125 -3.671875q0 -0.34375 -0.625 -0.34375l-0.40625 0l0 -0.265625q1.5625 -0.28125 2.5625 -0.5l0.046875 0.03125l-0.921875 3.34375q2.140625 -3.375 3.5625 -3.375q0.40625 0 0.65625 0.28125q0.25 0.265625 0.25 0.6875q0 0.484375 -0.640625 2.4375q0.125 -0.171875 0.265625 -0.421875q0.15625 -0.265625 0.390625 -0.578125q0.234375 -0.3125 0.46875 -0.640625q0.234375 -0.328125 0.53125 -0.640625q0.3125 -0.328125 0.609375 -0.5625q0.3125 -0.25 0.640625 -0.40625q0.34375 -0.15625 0.65625 -0.15625q0.390625 0 0.65625 0.296875q0.28125 0.28125 0.28125 0.71875q0 0.25 -0.046875 0.453125l-1.09375 4.015625q-0.15625 0.640625 -0.15625 0.71875z" fill-rule="nonzero"/><path fill="#000000" d="m447.22006 49.937263q0.3125 -0.3125 0.3125 -0.625l0.5 0l0 5.4375l-0.875 0l0 -4.1875l-1.0 0l0 -0.375l0.3125 0q0.5 0 0.75 -0.25z" fill-rule="nonzero"/><path fill="#cfe2f3" d="m16.32021 300.2651l0 0c0 -19.073395 15.46204 -34.53546 34.535435 -34.53546l0 0c9.159367 0 17.943588 3.6385498 24.420235 10.115204c6.476654 6.476654 10.115196 15.260864 10.115196 24.420258l0 0c0 19.073364 -15.462036 34.53543 -34.53543 34.53543l0 0c-19.073395 0 -34.535435 -15.462067 -34.535435 -34.53543z" fill-rule="evenodd"/><path stroke="#000000" stroke-width="1.0" stroke-linejoin="round" stroke-linecap="butt" d="m16.32021 300.2651l0 0c0 -19.073395 15.46204 -34.53546 34.535435 -34.53546l0 0c9.159367 0 17.943588 3.6385498 24.420235 10.115204c6.476654 6.476654 10.115196 15.260864 10.115196 24.420258l0 0c0 19.073364 -15.462036 34.53543 -34.53543 34.53543l0 0c-19.073395 0 -34.535435 -15.462067 -34.535435 -34.53543z" fill-rule="evenodd"/><path fill="#000000" d="m52.22026 305.26572q0 0.25 0.203125 0.25q0.21875 0 0.453125 -0.234375q0.25 -0.234375 0.921875 -1.03125l0.234375 0.1875q-0.625 0.875 -1.1875 1.359375q-0.546875 0.46875 -1.203125 0.46875q-0.640625 0 -0.640625 -0.734375q0 -0.203125 0.21875 -1.046875l0.921875 -3.6875q0.109375 -0.40625 0.109375 -0.5625q0 -0.125 -0.09375 -0.21875q-0.09375 -0.109375 -0.21875 -0.109375q-0.359375 0 -0.90625 0.484375q-0.546875 0.484375 -1.140625 1.296875q-0.609375 0.859375 -0.953125 1.71875q-0.34375 0.84375 -0.828125 2.71875l-1.203125 0q1.515625 -5.640625 1.515625 -5.828125q0 -0.390625 -0.3125 -0.390625q-0.421875 0 -1.078125 0.625q-0.65625 0.609375 -1.328125 1.625q-0.40625 0.625 -0.6875 1.359375q-0.28125 0.71875 -0.859375 2.609375l-1.203125 0q0.1875 -0.6875 0.625 -2.28125q0.953125 -3.328125 0.953125 -3.671875q0 -0.34375 -0.625 -0.34375l-0.40625 0l0 -0.265625q1.5625 -0.28125 2.5625 -0.5l0.046875 0.03125l-0.921875 3.34375q2.140625 -3.375 3.5625 -3.375q0.40625 0 0.65625 0.28125q0.25 0.265625 0.25 0.6875q0 0.484375 -0.640625 2.4375q0.125 -0.171875 0.265625 -0.421875q0.15625 -0.265625 0.390625 -0.578125q0.234375 -0.3125 0.46875 -0.640625q0.234375 -0.328125 0.53125 -0.640625q0.3125 -0.328125 0.609375 -0.5625q0.3125 -0.25 0.640625 -0.40625q0.34375 -0.15625 0.65625 -0.15625q0.390625 0 0.65625 0.296875q0.28125 0.28125 0.28125 0.71875q0 0.25 -0.046875 0.453125l-1.09375 4.015625q-0.15625 0.640625 -0.15625 0.71875z" fill-rule="nonzero"/><path fill="#000000" d="m55.006653 302.5001q0.125 -1.0625 0.5625 -1.5q0.375 -0.375 1.0625 -0.375q0.6875 0 1.125 0.375q0.4375 0.375 0.4375 1.0625q0 0.5625 -0.5625 1.3125q-0.4375 0.5625 -0.875 1.0625q-0.25 0.3125 -0.5625 0.625q-0.1875 0.25 -0.375 0.375l2.5625 0l0 0.75l-3.375 0l0 -0.5625q0.0625 -0.3125 0.5 -0.875q0.8125 -0.875 1.3125 -1.5q0.5 -0.5 0.5 -1.1875q0 -0.3125 -0.1875 -0.5q-0.1875 -0.1875 -0.4375 -0.1875q-0.25 0 -0.4375 0.1875q-0.4375 0.4375 -0.375 0.9375l-0.875 0z" fill-rule="nonzero"/><path fill="#cccccc" d="m318.11548 334.80054l0 0c0 -4.305237 3.4900818 -7.795288 7.795288 -7.795288l0 0c2.0674438 0 4.0502014 0.82128906 5.512085 2.2831726c1.4619141 1.4619141 2.2831726 3.4446716 2.2831726 5.5121155l0 0c0 4.3052063 -3.4900513 7.7952576 -7.7952576 7.7952576l0 0c-4.3052063 0 -7.795288 -3.4900513 -7.795288 -7.7952576z" fill-rule="evenodd"/><path stroke="#cccccc" stroke-width="1.0" stroke-linejoin="round" stroke-linecap="butt" d="m318.11548 334.80054l0 0c0 -4.305237 3.4900818 -7.795288 7.795288 -7.795288l0 0c2.0674438 0 4.0502014 0.82128906 5.512085 2.2831726c1.4619141 1.4619141 2.2831726 3.4446716 2.2831726 5.5121155l0 0c0 4.3052063 -3.4900513 7.7952576 -7.7952576 7.7952576l0 0c-4.3052063 0 -7.795288 -3.4900513 -7.795288 -7.7952576z" fill-rule="evenodd"/><path fill="#000000" fill-opacity="0.0" d="m318.11548 334.80054l-232.7244 -34.519684" fill-rule="evenodd"/><path stroke="#000000" stroke-width="1.0" stroke-linejoin="round" stroke-linecap="butt" d="m318.11548 334.80054l-232.7244 -34.519684" fill-rule="evenodd"/><path fill="#000000" fill-opacity="0.0" d="m75.27588 275.84485l341.7953 -202.51968" fill-rule="evenodd"/><path stroke="#b7b7b7" stroke-width="1.0" stroke-linejoin="round" stroke-linecap="butt" stroke-dasharray="4.0,3.0" d="m75.27588 275.84485l341.7953 -202.51968" fill-rule="evenodd"/><path fill="#000000" fill-opacity="0.0" d="m333.70602 334.80054l179.02365 0" fill-rule="evenodd"/><path stroke="#d9d9d9" stroke-width="1.0" stroke-linejoin="round" stroke-linecap="butt" stroke-dasharray="4.0,3.0" d="m333.70602 334.80054l179.02365 0" fill-rule="evenodd"/><path fill="#000000" fill-opacity="0.0" d="m264.3709 319.9333c7.289612 -30.177856 35.387238 -50.61673 66.343414 -48.259766c30.956207 2.356964 55.635498 26.814178 58.272186 57.747803l-63.07837 5.376587z" fill-rule="evenodd"/><path fill="#000000" fill-opacity="0.0" d="m264.3709 319.9333c7.289612 -30.177856 35.387238 -50.61673 66.343414 -48.259766c30.956207 2.356964 55.635498 26.814178 58.272186 57.747803" fill-rule="evenodd"/><path stroke="#cccccc" stroke-width="1.0" stroke-linejoin="round" stroke-linecap="butt" stroke-dasharray="4.0,3.0" d="m264.3709 319.9333c7.289612 -30.177856 35.387238 -50.61673 66.343414 -48.259766c30.956207 2.356964 55.635498 26.814178 58.272186 57.747803" fill-rule="evenodd"/><path fill="#000000" fill-opacity="0.0" d="m300.84076 324.56293l0 0c4.54364 -11.123199 15.872009 -17.923737 27.825348 -16.703796c11.953339 1.2199097 21.674377 10.168671 23.87735 21.980408l-26.627441 4.9662476z" fill-rule="evenodd"/><path fill="#000000" fill-opacity="0.0" d="m300.84076 324.56293l0 0c4.54364 -11.123199 15.872009 -17.923737 27.825348 -16.703796c11.953339 1.2199097 21.674377 10.168671 23.87735 21.980408" fill-rule="evenodd"/><path stroke="#cccccc" stroke-width="1.0" stroke-linejoin="round" stroke-linecap="butt" stroke-dasharray="4.0,3.0" d="m300.84076 324.56293l0 0c4.54364 -11.123199 15.872009 -17.923737 27.825348 -16.703796c11.953339 1.2199097 21.674377 10.168671 23.87735 21.980408" fill-rule="evenodd"/><path fill="#000000" fill-opacity="0.0" d="m384.2257 307.71915l39.433075 0l0 30.26773l-39.433075 0z" fill-rule="evenodd"/><path fill="#000000" d="m399.56802 329.77615q-1.140625 0 -1.921875 -1.015625q-0.765625 -1.015625 -0.765625 -2.46875q0 -1.3125 0.390625 -2.84375q0.390625 -1.546875 1.09375 -3.0q0.71875 -1.46875 1.90625 -2.4375q1.203125 -0.96875 2.609375 -0.96875q1.5 0 2.140625 1.046875q0.65625 1.03125 0.65625 2.625q0 1.28125 -0.40625 2.8125q-0.40625 1.515625 -1.15625 2.953125q-0.734375 1.421875 -1.9375 2.359375q-1.203125 0.9375 -2.609375 0.9375zm4.15625 -6.875q0.390625 -1.609375 0.390625 -3.21875q0 -0.609375 -0.0625 -1.03125q-0.0625 -0.421875 -0.390625 -0.796875q-0.3125 -0.390625 -0.890625 -0.390625q-2.3125 0 -3.671875 5.4375l4.625 0zm-0.109375 0.4375l-4.625 0q-0.546875 2.125 -0.546875 3.796875q0 2.21875 1.21875 2.21875q2.46875 0 3.953125 -6.015625z" fill-rule="nonzero"/><path fill="#000000" d="m406.98056 325.26053q0.15625 -1.25 0.671875 -1.78125q0.453125 -0.4375 1.265625 -0.4375q0.8125 0 1.328125 0.4375q0.53125 0.453125 0.53125 1.265625q0 0.671875 -0.671875 1.5625q-0.515625 0.671875 -1.046875 1.265625q-0.296875 0.359375 -0.65625 0.734375q-0.234375 0.296875 -0.453125 0.453125l3.046875 0l0 0.890625l-4.015625 0l0 -0.671875q0.078125 -0.375 0.59375 -1.046875q0.96875 -1.03125 1.5625 -1.78125q0.59375 -0.59375 0.59375 -1.40625q0 -0.375 -0.21875 -0.59375q-0.21875 -0.21875 -0.515625 -0.21875q-0.296875 0 -0.53125 0.21875q-0.515625 0.515625 -0.4375 1.109375l-1.046875 0z" fill-rule="nonzero"/><path fill="#000000" fill-opacity="0.0" d="m389.2152 169.87138l39.433075 0l0 30.26773l-39.433075 0z" fill-rule="evenodd"/><path fill="#000000" d="m410.4334 183.39713l-0.3125 1.40625l-0.09375 0q-0.515625 -0.125 -1.171875 -0.125q-1.21875 0 -2.75 1.078125l-1.359375 5.96875l-1.4375 0l1.921875 -8.40625l1.4375 0l-0.28125 1.25q1.765625 -1.25 3.046875 -1.25q0.40625 0 1.0 0.078125z" fill-rule="nonzero"/><path fill="#000000" d="m412.14105 186.0065q0.375 -0.375 0.375 -0.734375l0.59375 0l0 6.453125l-1.046875 0l0 -4.96875l-1.1875 0l0 -0.453125l0.375 0q0.59375 0 0.890625 -0.296875z" fill-rule="nonzero"/><path fill="#000000" fill-opacity="0.0" d="m224.88452 147.66667l24.377945 0l0 22.204712l-24.377945 0z" fill-rule="evenodd"/><path fill="#b7b7b7" d="m234.46265 162.5984l1.625 -0.25q0.125 0.96875 0.75 1.5q0.625 0.515625 1.75 0.515625q1.125 0 1.671875 -0.453125q0.546875 -0.46875 0.546875 -1.09375q0 -0.546875 -0.484375 -0.875q-0.328125 -0.21875 -1.671875 -0.546875q-1.8125 -0.46875 -2.515625 -0.796875q-0.6875 -0.328125 -1.046875 -0.90625q-0.359375 -0.59375 -0.359375 -1.3125q0 -0.640625 0.296875 -1.1875q0.296875 -0.5625 0.8125 -0.921875q0.375 -0.28125 1.03125 -0.46875q0.671875 -0.203125 1.421875 -0.203125q1.140625 0 2.0 0.328125q0.859375 0.328125 1.265625 0.890625q0.421875 0.5625 0.578125 1.5l-1.609375 0.21875q-0.109375 -0.75 -0.640625 -1.171875q-0.515625 -0.421875 -1.46875 -0.421875q-1.140625 0 -1.625 0.375q-0.46875 0.375 -0.46875 0.875q0 0.3125 0.1875 0.578125q0.203125 0.265625 0.640625 0.4375q0.234375 0.09375 1.4375 0.421875q1.75 0.453125 2.4375 0.75q0.6875 0.296875 1.078125 0.859375q0.390625 0.5625 0.390625 1.40625q0 0.828125 -0.484375 1.546875q-0.46875 0.71875 -1.375 1.125q-0.90625 0.390625 -2.046875 0.390625q-1.875 0 -2.875 -0.78125q-0.984375 -0.78125 -1.25 -2.328125z" fill-rule="nonzero"/><path fill="#000000" fill-opacity="0.0" d="m176.92126 285.13123l39.43306 0l0 30.26773l-39.43306 0z" fill-rule="evenodd"/><path fill="#000000" d="m198.13945 298.65695l-0.3125 1.40625l-0.09375 0q-0.515625 -0.125 -1.171875 -0.125q-1.21875 0 -2.75 1.078125l-1.359375 5.96875l-1.4375 0l1.921875 -8.40625l1.4375 0l-0.28125 1.25q1.765625 -1.25 3.046875 -1.25q0.40625 0 1.0 0.078125z" fill-rule="nonzero"/><path fill="#000000" d="m197.9877 302.67258q0.15625 -1.25 0.671875 -1.78125q0.453125 -0.4375 1.265625 -0.4375q0.8125 0 1.328125 0.4375q0.53125 0.453125 0.53125 1.265625q0 0.671875 -0.671875 1.5625q-0.515625 0.671875 -1.046875 1.265625q-0.296875 0.359375 -0.65625 0.734375q-0.234375 0.296875 -0.453125 0.453125l3.046875 0l0 0.890625l-4.015625 0l0 -0.671875q0.078125 -0.375 0.59375 -1.046875q0.96875 -1.03125 1.5625 -1.78125q0.59375 -0.59375 0.59375 -1.40625q0 -0.375 -0.21875 -0.59375q-0.21875 -0.21875 -0.515625 -0.21875q-0.296875 0 -0.53125 0.21875q-0.515625 0.515625 -0.4375 1.109375l-1.046875 0z" fill-rule="nonzero"/><path fill="#000000" fill-opacity="0.0" d="m344.79266 307.71915l39.433044 0l0 30.26773l-39.433044 0z" fill-rule="evenodd"/><path fill="#000000" d="m360.13495 329.77615q-1.140625 0 -1.921875 -1.015625q-0.765625 -1.015625 -0.765625 -2.46875q0 -1.3125 0.390625 -2.84375q0.390625 -1.546875 1.09375 -3.0q0.71875 -1.46875 1.90625 -2.4375q1.203125 -0.96875 2.609375 -0.96875q1.5 0 2.140625 1.046875q0.65625 1.03125 0.65625 2.625q0 1.28125 -0.40625 2.8125q-0.40625 1.515625 -1.15625 2.953125q-0.734375 1.421875 -1.9375 2.359375q-1.203125 0.9375 -2.609375 0.9375zm4.15625 -6.875q0.390625 -1.609375 0.390625 -3.21875q0 -0.609375 -0.0625 -1.03125q-0.0625 -0.421875 -0.390625 -0.796875q-0.3125 -0.390625 -0.890625 -0.390625q-2.3125 0 -3.671875 5.4375l4.625 0zm-0.109375 0.4375l-4.625 0q-0.546875 2.125 -0.546875 3.796875q0 2.21875 1.21875 2.21875q2.46875 0 3.953125 -6.015625z" fill-rule="nonzero"/><path fill="#000000" d="m369.40686 323.85428q0.375 -0.375 0.375 -0.734375l0.59375 0l0 6.453125l-1.046875 0l0 -4.96875l-1.1875 0l0 -0.453125l0.375 0q0.59375 0 0.890625 -0.296875z" fill-rule="nonzero"/><path fill="#000000" fill-opacity="0.0" d="m331.42285 329.28842l110.078735 -245.85825" fill-rule="evenodd"/><path stroke="#000000" stroke-width="1.0" stroke-linejoin="round" stroke-linecap="butt" d="m331.42285 329.28842l110.078735 -245.85825" fill-rule="evenodd"/></g></svg>